<svg id="cat_button" xmlns="http://www.w3.org/2000/svg" width="280" height="169.709" viewBox="0 0 280 169.709">
  <g id="Component_129_7" data-name="Component 129 – 7">
    <g id="Rectangle_173" data-name="Rectangle 173" transform="translate(20 33.709)" fill="#2a606c" stroke="#707070" stroke-width="1">
      <rect width="232.25" height="136" rx="68" stroke="none"/>
      <rect x="0.5" y="0.5" width="231.25" height="135" rx="67.5" fill="none"/>
    </g>
    <g id="Path_2543" data-name="Path 2543" transform="translate(209)" fill="none">
      <path d="M35.5,0C55.106,0,71,15,71,33.5S55.106,67,35.5,67,0,52,0,33.5,15.894,0,35.5,0Z" stroke="none"/>
      <path d="M 35.5 1 C 30.83506011962891 1 26.3106689453125 1.861763000488281 22.0525016784668 3.561351776123047 C 17.9426383972168 5.201740264892578 14.25231170654297 7.549430847167969 11.08403015136719 10.53921890258789 C 7.919849395751953 13.52513885498047 5.436271667480469 17.00067901611328 3.702301025390625 20.86930084228516 C 1.9091796875 24.86985015869141 1 29.11943054199219 1 33.5 C 1 37.88056945800781 1.9091796875 42.13014984130859 3.702301025390625 46.13069915771484 C 5.436271667480469 49.99932098388672 7.919849395751953 53.47486114501953 11.08403015136719 56.46078109741211 C 14.25231170654297 59.45056915283203 17.9426383972168 61.79825973510742 22.0525016784668 63.43864822387695 C 26.3106689453125 65.13823699951172 30.83506011962891 66 35.5 66 C 40.16493988037109 66 44.6893310546875 65.13823699951172 48.94750213623047 63.43864822387695 C 53.05735778808594 61.79825973510742 56.74768829345703 59.45056915283203 59.91596984863281 56.46078109741211 C 63.08015060424805 53.47486114501953 65.56372833251953 49.99932098388672 67.29769897460938 46.13069915771484 C 69.0908203125 42.13014984130859 70 37.88056945800781 70 33.5 C 70 29.11943054199219 69.0908203125 24.86985015869141 67.29769897460938 20.86930084228516 C 65.56372833251953 17.00067901611328 63.08015060424805 13.52513885498047 59.91596984863281 10.53921890258789 C 56.74768829345703 7.549430847167969 53.05735778808594 5.201740264892578 48.94750213623047 3.561351776123047 C 44.6893310546875 1.861763000488281 40.16493988037109 1 35.5 1 M 35.5 0 C 55.10610961914062 0 71 14.99845886230469 71 33.5 C 71 52.00154113769531 55.10610961914062 67 35.5 67 C 15.89389038085938 67 0 52.00154113769531 0 33.5 C 0 14.99845886230469 15.89389038085938 0 35.5 0 Z" stroke="none" fill="#000"/>
    </g>
    <g id="Path_2544" data-name="Path 2544" fill="none">
      <path d="M35.5,0C55.106,0,71,15,71,33.5S55.106,67,35.5,67,0,52,0,33.5,15.894,0,35.5,0Z" stroke="none"/>
      <path d="M 35.5 1 C 30.83506011962891 1 26.3106689453125 1.861763000488281 22.0525016784668 3.561351776123047 C 17.9426383972168 5.201740264892578 14.25231170654297 7.549430847167969 11.08403015136719 10.53921890258789 C 7.919849395751953 13.52513885498047 5.436271667480469 17.00067901611328 3.702301025390625 20.86930084228516 C 1.9091796875 24.86985015869141 1 29.11943054199219 1 33.5 C 1 37.88056945800781 1.9091796875 42.13014984130859 3.702301025390625 46.13069915771484 C 5.436271667480469 49.99932098388672 7.919849395751953 53.47486114501953 11.08403015136719 56.46078109741211 C 14.25231170654297 59.45056915283203 17.9426383972168 61.79825973510742 22.0525016784668 63.43864822387695 C 26.3106689453125 65.13823699951172 30.83506011962891 66 35.5 66 C 40.16493988037109 66 44.6893310546875 65.13823699951172 48.94750213623047 63.43864822387695 C 53.05735778808594 61.79825973510742 56.74768829345703 59.45056915283203 59.91596984863281 56.46078109741211 C 63.08015060424805 53.47486114501953 65.56372833251953 49.99932098388672 67.29769897460938 46.13069915771484 C 69.0908203125 42.13014984130859 70 37.88056945800781 70 33.5 C 70 29.11943054199219 69.0908203125 24.86985015869141 67.29769897460938 20.86930084228516 C 65.56372833251953 17.00067901611328 63.08015060424805 13.52513885498047 59.91596984863281 10.53921890258789 C 56.74768829345703 7.549430847167969 53.05735778808594 5.201740264892578 48.94750213623047 3.561351776123047 C 44.6893310546875 1.861763000488281 40.16493988037109 1 35.5 1 M 35.5 0 C 55.10610961914062 0 71 14.99845886230469 71 33.5 C 71 52.00154113769531 55.10610961914062 67 35.5 67 C 15.89389038085938 67 0 52.00154113769531 0 33.5 C 0 14.99845886230469 15.89389038085938 0 35.5 0 Z" stroke="none" fill="#000"/>
    </g>
  </g>
</svg>
