<svg id="Component_26_1" data-name="Component 26 – 1" xmlns="http://www.w3.org/2000/svg" width="101.284" height="114.283" viewBox="0 0 101.284 114.283">
  <g id="app-gallery-image">
    <g id="Group_803" data-name="Group 803">
      <path id="Path_2922" data-name="Path 2922" d="M50.641,0C22.673,0,0,25.585,0,57.142s22.673,57.141,50.641,57.141S101.284,88.7,101.284,57.142,78.608,0,50.641,0ZM77.4,86.416H23.886a2.6,2.6,0,0,1-2.433-2.744V30.611a2.6,2.6,0,0,1,2.433-2.744H77.4a2.6,2.6,0,0,1,2.433,2.744V67.767H74.11V34.223H27.118V69.661H29.8L40.646,50.581l7.247,12.75,3.6,6.331h3.12l-5.159-9.077,3.362-5.916,8.522,14.992h6.58V81.889H79.829v1.784h0A2.6,2.6,0,0,1,77.4,86.416ZM69.975,46.111c0,3.136-2.254,5.679-5.033,5.679s-5.033-2.543-5.033-5.679,2.254-5.679,5.033-5.679S69.975,42.977,69.975,46.111Zm9.855,31.826H71.42V71.72H88.24v6.217Z" transform="translate(0 -0.001)" fill="#cad7e4"/>
    </g>
  </g>
</svg>
