<svg xmlns="http://www.w3.org/2000/svg" xmlns:xlink="http://www.w3.org/1999/xlink" width="67.801" height="55.762" viewBox="0 0 67.801 55.762">
  <defs>
    <clipPath id="clip-path">
      <path id="Path_5801" data-name="Path 5801" d="M271,240.348h67.8V296.11H271Zm0,0" fill="rgba(128,203,196,0.33)"/>
    </clipPath>
  </defs>
  <g id="Group_1279" data-name="Group 1279" transform="translate(-860.299 -138.706)">
    <g id="Group_1274" data-name="Group 1274" transform="translate(589.299 -101.642)" clip-path="url(#clip-path)">
      <path id="Path_5800" data-name="Path 5800" d="M301.734,240.348c-17.15,0-30.625,10.617-30.625,23.684,0,6.532,4.9,13.067,10.21,17.558-.408,4.492-7.351,6.534-10.21,9.392,6.126,0,13.475-2.041,17.559-5.308a71.467,71.467,0,0,0,13.477,2.041c17.15,0,30.625-10.616,30.625-23.683S318.886,240.348,301.734,240.348Zm0,0" transform="translate(-0.054)" fill="rgba(128,203,196,0.33)"/>
    </g>
    <g id="Group_1276" data-name="Group 1276" transform="translate(3)">
      <ellipse id="Ellipse_307" data-name="Ellipse 307" cx="4" cy="4.5" rx="4" ry="4.5" transform="translate(875 158)" fill="#84ccc5"/>
      <ellipse id="Ellipse_308" data-name="Ellipse 308" cx="4" cy="4.5" rx="4" ry="4.5" transform="translate(885 158)" fill="#84ccc5"/>
      <ellipse id="Ellipse_309" data-name="Ellipse 309" cx="4" cy="4.5" rx="4" ry="4.5" transform="translate(895 158)" fill="#84ccc5"/>
    </g>
  </g>
</svg>
