<svg xmlns="http://www.w3.org/2000/svg" xmlns:xlink="http://www.w3.org/1999/xlink" width="204.754" height="216.426" viewBox="0 0 204.754 216.426">
  <defs>
    <filter id="Path_3255" x="0" y="0" width="204.754" height="216.426" filterUnits="userSpaceOnUse">
      <feOffset dy="3" input="SourceAlpha"/>
      <feGaussianBlur stdDeviation="3" result="blur"/>
      <feFlood flood-opacity="0.58"/>
      <feComposite operator="in" in2="blur"/>
      <feComposite in="SourceGraphic"/>
    </filter>
    <clipPath id="clip-path">
      <path id="Path_6668" data-name="Path 6668" d="M178.438,291h87.575v98.238H178.438Zm0,0" fill="#f3f2f2"/>
    </clipPath>
  </defs>
  <g id="Group_1836" data-name="Group 1836" transform="translate(-185.623 -1440)">
    <g id="Group_1835" data-name="Group 1835" transform="translate(141.377 1224)">
      <g transform="matrix(1, 0, 0, 1, 44.25, 216)" filter="url(#Path_3255)">
        <path id="Path_3255-2" data-name="Path 3255" d="M93.377,0c51.571,0,93.377,44.419,93.377,99.213s-41.806,99.213-93.377,99.213S0,154.007,0,99.213,41.806,0,93.377,0Z" transform="translate(9 6)" fill="#f83658"/>
      </g>
    </g>
    <g id="Group_1833" data-name="Group 1833" transform="translate(65.775 1205.094)" clip-path="url(#clip-path)">
      <path id="Path_6667" data-name="Path 6667" d="M185.357,357.69a5.418,5.418,0,0,0,7.3,1.851,5.352,5.352,0,0,0,1.753-7.4,32.684,32.684,0,0,1-4.636-20.39,32.842,32.842,0,1,1,33.333,36.028H222.9v-7.82a2.885,2.885,0,0,0-4.419-2.475l-21.093,13.283a2.9,2.9,0,0,0,0,4.943l20.989,13.179a2.882,2.882,0,0,0,4.417-2.466v-7.933a43.47,43.47,0,1,0-37.437-20.8" transform="translate(-0.337 -0.303)" fill="#f3f2f2"/>
    </g>
  </g>
</svg>
