<svg xmlns="http://www.w3.org/2000/svg" width="79.314" height="73.96" viewBox="0 0 79.314 73.96">
  <g id="_98739" data-name="98739" transform="translate(-0.315 1129.821)" style="isolation: isolate">
    <path id="Path_2923" data-name="Path 2923" d="M38.688-1125.744a5.317,5.317,0,0,0-3.136,2.536c-.44.7-5.237,9.643-15.42,28.733-4.432,8.3-7.276,13.644-13.914,26.079-3.031,5.669-5.584,10.517-5.671,10.773a7.807,7.807,0,0,0-.279,1.064,2.175,2.175,0,0,0,.019,1.242,3.7,3.7,0,0,0,1,2,3.985,3.985,0,0,0,1.872,1.169l.6.2H75.95l.583-.138a3.512,3.512,0,0,0,2.851-2.851,2.534,2.534,0,0,0,0-1.517c-.254-1.15.446.191-9.3-17.828-4.531-8.382-10.419-19.273-18.743-34.684-4.016-7.423-7.481-13.795-7.71-14.156a6.231,6.231,0,0,0-2.554-2.4,5.994,5.994,0,0,0-1.6-.388A4.428,4.428,0,0,0,38.688-1125.744ZM42.345-1115c1.475,2.726,5.268,9.748,8.435,15.6,9.613,17.789,20.391,37.732,21.873,40.478a11.126,11.126,0,0,1,.75,1.531c-.025.046-10.958.066-33.661.066-30.531,0-33.618-.007-33.618-.105,0-.052.719-1.452,1.605-3.1,1.692-3.173,6.1-11.437,14.447-27.077,7.586-14.222,8.07-15.122,11.014-20.627,5.578-10.418,6.309-11.765,6.39-11.745C39.624-1119.97,40.87-1117.73,42.345-1115Z" transform="translate(0.129 -3.919)" fill="#fff"/>
    <path id="Path_2924" data-name="Path 2924" d="M553.709-786.717a6.057,6.057,0,0,0-2.916,1.585,5.528,5.528,0,0,0-1.25,1.735c-.5,1.051-.535,1.685-.249,3.842.1.765.435,3.32.746,5.683s.7,5.341.87,6.621.448,3.407.622,4.725c.336,2.586.454,3.121.839,3.761a2.758,2.758,0,0,0,1.206,1.138,1.913,1.913,0,0,0,1.032.249,3.443,3.443,0,0,0,1.233-.186,2.572,2.572,0,0,0,1.477-1.511,9.531,9.531,0,0,0,.64-3.109l1.909-14.5c.361-2.723.56-4.476.56-4.831a5.029,5.029,0,0,0-1.766-3.674A5.558,5.558,0,0,0,553.709-786.717Z" transform="translate(-514.801 -321.997)" fill="#fff"/>
    <path id="Path_2925" data-name="Path 2925" d="M581-273.555a3.967,3.967,0,0,0-3.208,2.773,4.651,4.651,0,0,0-.062,2.263,3.857,3.857,0,0,0,6.976,1.243,4.132,4.132,0,0,0-.156-4.781A3.906,3.906,0,0,0,581-273.555Z" transform="translate(-541.534 -799.327)" fill="#fff"/>
  </g>
</svg>
