<svg xmlns="http://www.w3.org/2000/svg" width="63.278" height="70.31" viewBox="0 0 63.278 70.31">
  <g id="trash-bin-trash-svgrepo-com" transform="translate(-3 -2)">
    <path id="Path_5333" data-name="Path 5333" d="M3,17.419a2.916,2.916,0,0,1,2.712-3.084l9.366,0a4.609,4.609,0,0,0,4.136-3.39c.017-.052.036-.117.1-.351l.4-1.377a16.675,16.675,0,0,1,.763-2.237,8.28,8.28,0,0,1,5.933-4.863A11.893,11.893,0,0,1,28.526,2H40.753a11.891,11.891,0,0,1,2.108.116,8.28,8.28,0,0,1,5.933,4.863,16.624,16.624,0,0,1,.763,2.237l.4,1.377c.069.234.088.3.1.351a5.008,5.008,0,0,0,4.461,3.391h9.04a2.916,2.916,0,0,1,2.712,3.084A2.916,2.916,0,0,1,63.566,20.5H5.712A2.916,2.916,0,0,1,3,17.419Z" transform="translate(0 0)" fill="#8a2e52"/>
    <path id="Path_5334" data-name="Path 5334" d="M11.124,11.492a2.676,2.676,0,0,1,2.886,2.485l1.758,18.5a2.742,2.742,0,0,1-2.361,3.038,2.676,2.676,0,0,1-2.886-2.485l-1.758-18.5A2.742,2.742,0,0,1,11.124,11.492Z" transform="translate(14.464 23.84)" fill="#1c274c" fill-rule="evenodd"/>
    <path id="Path_5335" data-name="Path 5335" d="M17.907,11.492a2.742,2.742,0,0,1,2.361,3.038l-1.758,18.5a2.676,2.676,0,0,1-2.886,2.485,2.742,2.742,0,0,1-2.361-3.038l1.758-18.5A2.676,2.676,0,0,1,17.907,11.492Z" transform="translate(25.784 23.84)" fill="#1c274c" fill-rule="evenodd"/>
    <path id="Path_5336" data-name="Path 5336" d="M28.187,56.422H31.03c9.782,0,14.674,0,17.854-3.114s3.506-8.223,4.156-18.441l.938-14.722c.353-5.544.53-8.316-1.066-10.072s-4.29-1.757-9.678-1.757H15.982c-5.388,0-8.083,0-9.678,1.757S4.886,14.6,5.239,20.145l.938,14.722c.651,10.218.976,15.326,4.156,18.441S18.4,56.422,28.187,56.422Z" transform="translate(5.031 15.887)" fill="#f83658" opacity="0.5"/>
  </g>
</svg>
